<svg height="35" viewBox="0 0 143 35" width="143" xmlns="http://www.w3.org/2000/svg"><g fill="none"><path d="m.00074038 21.4929758c0-.2147583-.31413461-2.9364048 12.01210582-3.583429 11.0863076-.5819939 11.5332884-3.2436858 11.5332884-3.5707402v8.7490484c0 .2143353.3638462 2.8662991-11.7445096 3.5833232-6.48936539.3842599-9.41092308 1.3683837-10.72616346 2.2166315-.46400962.2992447-1.07472116-.0353173-1.07472116-.587281zm0-14.3270543c0-.2146526-.31413461-2.9364049 12.01210582-3.58342905 11.0863076-.58188822 11.5332884-3.24358006 11.5332884-3.57063444v8.74894259c0 .2143354.3638462 2.8662991-11.7445096 3.5833233-11.13898077.6596072-11.76598077 3.0865559-11.80088462 3.5604834z" fill="#4c3f85" fill-opacity=".7" transform="translate(0 6)"/><path d="m.00074038 21.9125378c0 .2146525-.31413461 2.9364048 12.01210582 3.583429 11.0863076.5819939 11.5332884 3.2436858 11.5332884 3.5706344 0 0 0-8.5345015 0-8.7489426 0-.2143353.3638462-2.8662991-11.7445096-3.5833233-11.13898077-.6597129-11.76598077-3.0864501-11.80088462-3.5603776zm0-14.32694868c0 .21454683-.31413461 2.93629908 12.01210582 3.58332328 11.0863076.5819939 11.5332884 3.2437915 11.5332884 3.5707402 0 0 0-8.53460728 0-8.74894263 0-.21444109.3638462-2.86640483-11.7445096-3.583429-6.48936539-.38425982-9.41092308-1.36838369-10.72616346-2.21663142-.46400962-.29924472-1.07472116.03531722-1.07472116.58728096z" fill="#4c3f85"/><path d="m53.4261538 23.231435c1.9076539 0 3.1589039-.7998187 3.1589039-2.4814048 0-1.6405589-1.1691731-2.6248942-3.4255481-2.6248942h-3.0974519v5.106299zm-.3692403-6.6648036c1.4974807 0 2.8512211-.6153021 2.8512211-2.3788368 0-1.3945015-.9230481-2.2967825-3.0564134-2.2967825l-2.7896635.0204078v4.6552115zm-4.7795-6.2752568h4.7589807c2.8308077 0 4.6974231 1.0663898 4.6974231 3.5477946 0 1.4150151-.7384808 2.7683837-2.3179327 3.322145v.0410272c1.7025673.3486254 3.0358942 1.5790181 3.0358942 3.691284 0 2.3174018-1.5590384 3.957855-4.8615769 3.957855h-5.3127884zm24.5662788 9.4538067-2.6872788-7.3005136h-.0409327l-2.6461346 7.3005136zm-3.5898077-9.4538067h1.7846442l5.5385 14.5601058h-1.8667211l-1.3128077-3.5477946h-6.5025865l-1.2922885 3.5477946h-1.8666154zm18.1990769 7.382568c2.4205289 0 3.4666923-1.230287 3.4666923-2.9119789 0-1.8661027-1.2102115-2.8505438-3.2205673-2.8505438h-3.1383846v5.7625227zm-4.6769038-7.382568h5.1692596c3.3640962 0 4.8205385 1.9276435 4.8205385 4.5116163 0 2.4403777-1.333327 3.8553928-3.6308462 4.326994l4.0205 5.7214955h-2.1332596l-3.8564519-5.5573867h-2.6050962v5.5573867h-1.7846442zm25.3169233 9.4538067-2.686962-7.3005136h-.040932l-2.646241 7.3005136zm-3.589491-9.4538067h1.785068l5.538077 14.5601058h-1.866827l-1.312596-3.5477946h-6.502799l-1.292182 3.5477946h-1.8667214zm12.144106 12.7964653 1.024904-1.3124472c.718173.8203324 1.722981 1.4765559 2.748942 1.4765559 1.415193 0 2.379808-.8203323 2.379808-3.1785498v-9.7820242h1.804423v9.8229456c0 3.1376284-1.25125 4.8397281-4.101731 4.8397281-1.313654 0-2.851538-.6151963-3.856346-1.8662084m22.553173-3.3426586-2.686538-7.3005136h-.04125l-2.646346 7.3005136zm-3.589807-9.4538067h1.785384l5.538077 14.5601058h-1.866827l-1.312596-3.5477946h-6.502692l-1.2925 3.5477946h-1.866827z" fill="#fff"/></g></svg>