<?xml version="1.0" encoding="UTF-8"?>
<svg width="48px" height="18px" viewBox="0 0 48 18" version="1.1" xmlns="http://www.w3.org/2000/svg" xmlns:xlink="http://www.w3.org/1999/xlink">
    <g id="Page-1" stroke="none" stroke-width="1" fill="none" fill-rule="evenodd">
        <g id="Dribble" transform="translate(-141.000000, -218.000000)" fill="#000000" fill-rule="nonzero">
            <path d="M144.899,235 L144.899,223.661 L149.591,235 L152.236,235 L156.928,223.569 L156.928,235 L160.056,235 L160.056,218.693 L155.732,218.693 L150.948,230.469 L146.049,218.693 L141.863,218.693 L141.863,235 L144.899,235 Z M167.738,235.299 C168.382,235.299 168.9915,235.1725 169.5665,234.9195 C170.1415,234.6665 170.574667,234.287 170.866,233.781 C170.866,234.287 170.896667,234.693333 170.958,235 L170.958,235 L173.879,235 C173.802333,234.356 173.764,233.673667 173.764,232.953 L173.764,232.953 L173.764,223.684 L170.705,223.684 L170.705,230.262 C170.705,230.936667 170.513333,231.477167 170.13,231.8835 C169.746667,232.289833 169.225333,232.493 168.566,232.493 C167.891333,232.493 167.377667,232.282167 167.025,231.8605 C166.672333,231.438833 166.496,230.890667 166.496,230.216 L166.496,230.216 L166.496,223.684 L163.437,223.684 L163.437,230.837 C163.437,232.109667 163.820333,233.1715 164.587,234.0225 C165.353667,234.8735 166.404,235.299 167.738,235.299 Z M180.089,235 L180.089,229.825 C180.089,228.690333 180.357333,227.873833 180.894,227.3755 C181.430667,226.877167 182.136,226.628 183.01,226.628 C183.316667,226.628 183.623333,226.658667 183.93,226.72 L183.93,226.72 L183.93,223.638 C183.623333,223.607333 183.385667,223.592 183.217,223.592 C181.622333,223.592 180.549,224.182333 179.997,225.363 L179.997,225.363 L179.997,223.684 L177.03,223.684 L177.03,235 L180.089,235 Z M186.161,235.161 C186.743667,235.161 187.242,234.957833 187.656,234.5515 C188.07,234.145167 188.277,233.650667 188.277,233.068 C188.277,232.485333 188.07,231.990833 187.656,231.5845 C187.242,231.178167 186.743667,230.975 186.161,230.975 C185.593667,230.975 185.103,231.178167 184.689,231.5845 C184.275,231.990833 184.068,232.485333 184.068,233.068 C184.068,233.650667 184.275,234.149 184.689,234.563 C185.103,234.961667 185.593667,235.161 186.161,235.161 Z" id="Mur."></path>
        </g>
    </g>
</svg>
