<?xml version="1.0" encoding="UTF-8"?>
<svg width="24px" height="35px" viewBox="0 0 24 35" version="1.1" xmlns="http://www.w3.org/2000/svg" xmlns:xlink="http://www.w3.org/1999/xlink">
    <!-- Generator: Sketch 63.1 (92452) - https://sketch.com -->
    <title>7ae139f2-974a-4d7f-9a9e-6fa5f4f02c0a_Baraja+(Inverse)</title>
    <desc>Created with Sketch.</desc>
    <g id="Samples" stroke="none" stroke-width="1" fill="none" fill-rule="evenodd">
        <g id="Dribble-Copy" transform="translate(-80.000000, -198.000000)" fill="#4C3F85" fill-rule="nonzero">
            <g id="7ae139f2-974a-4d7f-9a9e-6fa5f4f02c0a_Baraja+(Inverse)" transform="translate(80.000000, 198.000000)">
                <path d="M0.00074038,27.4929758 C0.00074038,27.2782175 -0.31339423,24.556571 12.0128462,23.9095468 C23.0991538,23.3275529 23.5461346,20.665861 23.5461346,20.3388066 L23.5461346,29.087855 C23.5461346,29.3021903 23.9099808,31.9541541 11.801625,32.6711782 C5.31225961,33.0554381 2.39070192,34.0395619 1.07546154,34.8878097 C0.61145192,35.1870544 0.00074038,34.8524924 0.00074038,34.3005287 L0.00074038,27.4929758 Z M0.00074038,13.1659215 C0.00074038,12.9512689 -0.31339423,10.2295166 12.0128462,9.58249245 C23.0991538,9.00060423 23.5461346,6.33891239 23.5461346,6.01185801 L23.5461346,14.7608006 C23.5461346,14.975136 23.9099808,17.6270997 11.801625,18.3441239 C0.66264423,19.0037311 0.03564423,21.4306798 0.00074038,21.9046073 L0.00074038,13.1659215 Z" id="Shape" fill-opacity="0.7"></path>
                <path d="M0.00074038,21.9125378 C0.00074038,22.1271903 -0.31339423,24.8489426 12.0128462,25.4959668 C23.0991538,26.0779607 23.5461346,28.7396526 23.5461346,29.0666012 C23.5461346,29.0666012 23.5461346,20.5320997 23.5461346,20.3176586 C23.5461346,20.1033233 23.9099808,17.4513595 11.801625,16.7343353 C0.66264423,16.0746224 0.03564423,13.6478852 0.00074038,13.1739577 L0.00074038,21.9125378 Z M0.00074038,7.58558912 C0.00074038,7.80013595 -0.31339423,10.5218882 12.0128462,11.1689124 C23.0991538,11.7509063 23.5461346,14.4127039 23.5461346,14.7396526 C23.5461346,14.7396526 23.5461346,6.20504532 23.5461346,5.99070997 C23.5461346,5.77626888 23.9099808,3.12430514 11.801625,2.40728097 C5.31225961,2.02302115 2.39070192,1.03889728 1.07546154,0.19064955 C0.61145192,-0.10859517 0.00074038,0.22596677 0.00074038,0.77793051 L0.00074038,7.58558912 Z" id="Shape"></path>
            </g>
        </g>
    </g>
</svg>