<svg width="258" height="49" viewBox="0 0 258 49" version="1.1" xmlns="http://www.w3.org/2000/svg" xmlns:xlink="http://www.w3.org/1999/xlink">
<title>seatgeek</title>
<desc>Created using Figma</desc>
<g id="Canvas" transform="translate(-1261 -256)">
<g id="seatgeek">
<g id="Page 1">
<g id="SeatGeek Blue">
<g id="Layer 1">
<g id="Group">
<g id="Group">
<g id="XMLID 30">
<use xlink:href="#path0_fill" transform="translate(1361.65 272.398)" fill="#9B9B9B"/>
</g>
<g id="XMLID 25">
<use xlink:href="#path1_fill" transform="translate(1384.68 272.376)" fill="#9B9B9B"/>
</g>
<g id="XMLID 23">
<use xlink:href="#path2_fill" transform="translate(1406.41 267.304)" fill="#9B9B9B"/>
</g>
<g id="XMLID 22">
<use xlink:href="#path3_fill" transform="translate(1337.53 264.833)" fill="#9B9B9B"/>
</g>
<g id="XMLID 17">
<g id="XMLID 20">
<use xlink:href="#path4_fill" transform="translate(1497.09 265.241)" fill="#9B9B9B"/>
</g>
<g id="XMLID 19">
<use xlink:href="#path5_fill" transform="translate(1502.25 272.914)" fill="#9B9B9B"/>
</g>
</g>
<g id="XMLID 5">
<use xlink:href="#path6_fill" transform="translate(1449.16 272.398)" fill="#9B9B9B"/>
</g>
<g id="XMLID 2">
<use xlink:href="#path7_fill" transform="translate(1472.88 272.398)" fill="#9B9B9B"/>
</g>
<g id="XMLID 1">
<use xlink:href="#path8_fill" transform="translate(1420.86 264.833)" fill="#9B9B9B"/>
</g>
</g>
<g id="Group">
<g id="XMLID 36">
<use xlink:href="#path9_fill" transform="translate(1272.13 256)" fill="#9B9B9B"/>
</g>
<g id="XMLID 35">
<use xlink:href="#path10_fill" transform="translate(1272.13 295.501)" fill="#9B9B9B"/>
</g>
<g id="XMLID 34">
<use xlink:href="#path11_fill" transform="translate(1261 278.738)" fill="#9B9B9B"/>
</g>
<g id="XMLID 33">
<use xlink:href="#path12_fill" transform="translate(1315.2 278.738)" fill="#9B9B9B"/>
</g>
</g>
</g>
</g>
</g>
</g>
</g>
</g>
<defs>
<path id="path0_fill" fill-rule="evenodd" d="M 10.9954 -1.40096e-07C 3.96874 -1.40096e-07 -8.90479e-07 5.71667 -8.90479e-07 11.8846C -8.90479e-07 14.6355 0.607239 23.7478 12.4484 23.7478C 15.94 23.7478 18.3039 22.8237 20.0389 21.8781L 20.0389 16.7202C 20.0389 16.7202 17.1979 18.9338 13.0556 18.9338C 8.43629 18.9338 6.15914 16.3548 5.79046 13.561L 21.1666 13.561L 21.1666 10.6382C 21.1666 8.91886 21.21 -1.40096e-07 10.9954 -1.40096e-07ZM 5.81215 9.02631C 6.13745 7.02763 7.65555 4.77105 11.2556 4.77105C 14.3352 4.77105 15.5063 6.8557 15.7665 9.02631L 5.81215 9.02631Z"/>
<path id="path1_fill" fill-rule="evenodd" d="M 18.4991 8.51053C 18.4991 0.386844 12.6219 3.91833e-08 9.69414 3.91833e-08C 5.29166 3.91833e-08 1.40966 1.86974 1.40966 1.86974L 1.40966 7.00614C 1.40966 7.00614 4.8796 4.77105 8.28448 4.77105C 12.6653 4.77105 12.8388 7.07061 12.8388 9.75702C 4.8796 9.45614 1.70259e-06 11.068 1.70259e-06 16.9351C 1.70259e-06 22.7807 6.02902 23.7693 10.5182 23.7693C 13.9448 23.7693 18.5425 22.9311 18.5425 22.9311C 18.5425 22.9311 18.4991 15.968 18.4991 8.51053ZM 12.752 19.0412C 12.752 19.0412 5.7254 20.3952 5.7254 16.4838C 5.7254 13.1741 10.9737 13.6039 12.752 13.7114L 12.752 19.0412Z"/>
<path id="path2_fill" fill-rule="evenodd" d="M 9.06677 24.0702C 6.44263 24.0702 5.74864 22.6947 5.74864 20.6316L 5.74864 10.3588L 12.168 10.3588L 12.168 5.56623L 5.74864 5.56623L 5.74864 -7.24573e-08L 0.00156044 -7.24573e-08L 0.00156044 19.8364C 0.00156044 23.2105 -0.30206 28.8627 7.57036 28.8627C 11.2572 28.8627 13.0355 27.7667 13.0355 27.7667L 13.0572 22.8452C 13.0789 22.8452 10.9102 24.0702 9.06677 24.0702Z"/>
<path id="path3_fill" fill-rule="evenodd" d="M 20.1473 7.65088L 20.1473 1.86974C 20.1473 1.86974 16.6991 -4.28496e-10 11.1038 -4.28496e-10C 5.50853 -4.28496e-10 3.39449e-09 2.49298 3.39449e-09 8.76842C 3.39449e-09 13.9263 3.55669 15.7316 6.50613 16.7846C 9.47727 17.8377 12.1665 18.8263 13.5978 19.5785C 15.0292 20.3307 15.9183 21.0829 15.9183 22.8237C 15.9183 24.543 14.9207 26.2623 10.0628 26.2623C 5.20491 26.2623 0.368681 23.0816 0.368681 23.0816L 0.368681 28.9057C 0.368681 28.9057 4.14224 31.3557 10.0628 31.3557C 15.9834 31.3557 21.904 29.1421 21.904 22.3724C 21.904 16.6342 16.6774 14.5711 15.1593 13.9478C 13.9014 13.3675 9.21702 11.7987 8.37123 11.3689C 7.15675 10.7456 5.81215 10.0579 5.94227 8.18816C 6.07239 6.44737 7.39531 5.05044 10.8219 5.05044C 15.7448 5.05044 20.1473 7.65088 20.1473 7.65088Z"/>
<path id="path4_fill" fill-rule="evenodd" d="M 5.74708 30.4101L 5.74708 0L 8.48623e-10 0L 8.48623e-10 30.4101L 5.74708 30.4101Z"/>
<path id="path5_fill" fill-rule="evenodd" d="M 9.13027 22.7377L 1.69668e-07 10.4232L 8.93509 1.06459e-07L 15.6364 1.06459e-07L 6.50613 10.4232L 15.8533 22.7377L 9.13027 22.7377Z"/>
<path id="path6_fill" fill-rule="evenodd" d="M 10.9954 -1.40096e-07C 3.96874 -1.40096e-07 -1.11035e-06 5.71667 -1.11035e-06 11.8846C -1.11035e-06 14.6355 0.607239 23.7478 12.4484 23.7478C 15.94 23.7478 18.3039 22.8237 20.0389 21.8781L 20.0389 16.7202C 20.0389 16.7202 17.1979 18.9338 13.0556 18.9338C 8.43629 18.9338 6.15914 16.3548 5.79046 13.561L 21.1666 13.561L 21.1666 10.6382C 21.1666 8.91886 21.21 -1.40096e-07 10.9954 -1.40096e-07ZM 5.81215 9.02631C 6.13746 7.02763 7.65555 4.77105 11.2556 4.77105C 14.3352 4.77105 15.5063 6.8557 15.7665 9.02631L 5.81215 9.02631Z"/>
<path id="path7_fill" fill-rule="evenodd" d="M 10.9954 -1.40096e-07C 3.96874 -1.40096e-07 5.89746e-06 5.71667 5.89746e-06 11.8846C 5.89746e-06 14.6355 0.607238 23.7478 12.4484 23.7478C 15.94 23.7478 18.3039 22.8237 20.0389 21.8781L 20.0389 16.7202C 20.0389 16.7202 17.1979 18.9338 13.0556 18.9338C 8.43628 18.9338 6.15914 16.3548 5.79046 13.561L 21.1449 13.561L 21.1449 10.6382C 21.1449 8.91886 21.1883 -1.40096e-07 10.9954 -1.40096e-07ZM 5.79046 9.02631C 6.11576 7.02763 7.63386 4.77105 11.2339 4.77105C 14.3135 4.77105 15.4846 6.8557 15.7448 9.02631L 5.79046 9.02631Z"/>
<path id="path8_fill" fill-rule="evenodd" d="M 24.4847 7.65088L 24.4847 1.86974C 24.4847 1.86974 21.6004 -4.28496e-10 15.5713 -4.28496e-10C 7.54712 -4.28496e-10 -2.02891e-06 5.75965 -2.02891e-06 15.9465C -2.02891e-06 25.7035 6.24589 31.3342 15.6798 31.3342C 22.1859 31.3342 25.2004 29.486 25.2004 29.486L 25.2004 16.9351C 25.2004 15.4092 23.9426 14.1627 22.4028 14.1627L 13.2508 14.1627L 13.2508 19.2346L 19.4533 19.2346L 19.4533 25.7465C 19.4533 25.7465 17.8919 26.2838 15.5063 26.2838C 9.23871 26.2838 5.98564 21.4912 5.98564 15.9895C 5.98564 10.1439 9.69414 5.09342 15.7015 5.09342C 19.9955 5.05044 22.1209 6.21097 24.4847 7.65088Z"/>
<path id="path9_fill" fill-rule="evenodd" d="M -8.79517e-08 5.28684C -8.79517e-08 5.28684 8.13266 0 21.2967 0C 34.4608 0 42.5935 5.28684 42.5935 5.28684L 37.2585 33.3114L 5.31334 33.3114L -8.79517e-08 5.28684Z"/>
<path id="path10_fill" fill-rule="evenodd" d="M -8.79517e-08 1.80371e-07C -8.79517e-08 1.80371e-07 8.28447 3.76096 21.2967 3.76096C 34.309 3.76096 42.5935 1.80371e-07 42.5935 1.80371e-07L 42.5935 5.97456C 42.5935 5.97456 34.1572 9.49912 21.2967 9.49912C 8.43628 9.49912 -8.79517e-08 5.97456 -8.79517e-08 5.97456L -8.79517e-08 1.80371e-07Z"/>
<path id="path11_fill" fill-rule="evenodd" d="M 10.6484 12.8947L 10.6484 2.92281C 10.6484 1.31096 9.32546 -7.17847e-07 7.69892 -7.17847e-07L -3.70747e-09 -7.17847e-07L -3.70747e-09 5.28684L 4.96635 5.28684L 4.96635 12.9162L 10.6484 12.9162L 10.6484 12.8947Z"/>
<path id="path12_fill" fill-rule="evenodd" d="M -9.17285e-07 12.8947L -9.17285e-07 2.92281C -9.17285e-07 1.31096 1.32291 -7.17847e-07 2.94945 -7.17847e-07L 10.6484 -7.17847e-07L 10.6484 5.28684L 5.68202 5.28684L 5.68202 12.9162L -9.17285e-07 12.9162L -9.17285e-07 12.8947Z"/>
</defs>
</svg>
